<?xml version="1.0" encoding="iso-8859-1"?>
<!-- Uploaded to: SVG Repo, www.svgrepo.com, Generator: SVG Repo Mixer Tools -->
<!DOCTYPE svg PUBLIC "-//W3C//DTD SVG 1.1//EN" "http://www.w3.org/Graphics/SVG/1.1/DTD/svg11.dtd">
<svg fill="#000000" height="800px" width="800px" version="1.1" id="Capa_1" xmlns="http://www.w3.org/2000/svg" xmlns:xlink="http://www.w3.org/1999/xlink" 
	 viewBox="0 0 512 512" xml:space="preserve">
<path d="M331.328,75.914C313.043,61.805,288,42.477,288,32c0-17.672-14.328-32-32-32s-32,14.328-32,32v293.58
	c-10.023-3.549-20.762-5.58-32-5.58c-53.02,0-96,42.98-96,96s42.98,96,96,96s96-42.98,96-96V123.293
	c1.414,1.094,2.82,2.203,4.23,3.293c36.105,27.852,59.77,48.078,59.77,74.305c0,40.766-21.684,63.516-22.305,64.164
	c-12.672,12.32-12.961,32.578-0.641,45.25c6.273,6.453,14.605,9.695,22.949,9.695c8.035,0,16.082-3.008,22.301-9.055
	c4.27-4.148,41.695-42.484,41.695-110.055C416,141.25,369.051,105.023,331.328,75.914z"/>
</svg>