<svg xmlns="http://www.w3.org/2000/svg" fill-rule="evenodd" stroke-linejoin="round" stroke-miterlimit="2" clip-rule="evenodd" viewBox="0 0 28 28" id="preferences"><g transform="translate(-126 -378)"><path d="M133.794 401L150.965 401C151.517 401 151.965 400.552 151.965 400 151.965 399.448 151.517 399 150.965 399L133.794 399C133.382 397.835 132.27 397 130.965 397 129.309 397 127.965 398.344 127.965 400 127.965 401.656 129.309 403 130.965 403 132.27 403 133.382 402.165 133.794 401zM138.421 391L129.08 391C128.528 391 128.08 391.448 128.08 392 128.08 392.552 128.528 393 129.08 393L138.421 393C138.833 394.165 139.945 395 141.25 395 142.555 395 143.667 394.165 144.079 393L151 393C151.552 393 152 392.552 152 392 152 391.448 151.552 391 151 391L144.079 391C143.667 389.835 142.555 389 141.25 389 139.945 389 138.833 389.835 138.421 391zM133.829 385L151 385C151.552 385 152 384.552 152 384 152 383.448 151.552 383 151 383L133.829 383C133.417 381.835 132.305 381 131 381 129.344 381 128 382.344 128 384 128 385.656 129.344 387 131 387 132.305 387 133.417 386.165 133.829 385z"></path></g></svg>