<?xml version="1.0" encoding="UTF-8"?>
<svg xmlns="http://www.w3.org/2000/svg" viewBox="0 0 24 24" enable-background="new 0 0 24 24">
    <path d="M 12 3 L 6 9 L 2 9 L 2 15 L 6 15 L 12 21 L 12 3 z M 14 3.09375 L 14 5.09375 C 17.1875 5.5625 19.670654 8.1394043 19.96875 11.34375 C 19.988623 11.557373 20 11.78125 20 12 C 20 15.5 17.4 18.40625 14 18.90625 L 14 20.90625 C 18.5 20.40625 22 16.6 22 12 C 22 7.4 18.5 3.59375 14 3.09375 z M 14 7.09375 L 14 9.1875 C 15.2 9.5875 16 10.7 16 12 C 16 13.3 15.2 14.4125 14 14.8125 L 14 16.90625 C 16.3 16.40625 18 14.4 18 12 C 18 9.6 16.3 7.59375 14 7.09375 z"/>
</svg>